<?xml version="1.0" encoding="utf-8"?>
<svg xmlns="http://www.w3.org/2000/svg" viewBox="0 0 500 500">
  <g id="Layer_1" transform="matrix(1, 0, 0, 1, -186.002533, 25.851198)">
    <path fill="#ECA301" opacity="1.000000" stroke="none" d="M 322.909 334.827 C 331.429 339.773 339.738 344.365 347.805 349.348 C 350.794 351.195 353.003 350.919 355.851 349.237 C 369.892 340.942 384.028 332.81 398.15 324.652 C 405.582 320.359 413.168 319.817 421.399 323.954 C 419.819 324.974 418.618 325.822 417.351 326.557 C 396.765 338.498 376.148 350.384 355.609 362.404 C 352.902 363.988 350.882 364.172 347.997 362.487 C 321.841 347.217 295.603 332.084 269.283 317.099 C 266.082 315.277 265.052 313.289 265.07 309.675 C 265.223 279.512 265.254 249.348 265.039 219.186 C 265.011 215.23 266.401 213.341 269.621 211.487 C 322.697 180.931 375.725 150.291 428.686 119.536 C 431.871 117.687 434.1 117.81 437.191 119.646 C 452.93 128.992 468.791 138.134 484.672 147.241 C 492.151 151.529 496.51 157.666 497.19 167.214 C 495.031 166.093 493.342 165.298 491.733 164.368 C 473.291 153.706 454.828 143.079 436.464 132.284 C 433.84 130.741 431.974 130.694 429.299 132.261 C 406.756 145.47 384.143 158.561 361.45 171.511 C 358.288 173.316 357.183 175.321 357.207 178.964 C 357.377 204.626 357.368 230.291 357.215 255.954 C 357.194 259.531 358.134 261.607 361.367 263.446 C 381.765 275.044 402.023 286.887 422.332 298.642 C 423.606 299.38 424.917 300.053 426.729 301.038 C 426.918 299.423 427.182 298.215 427.183 297.006 C 427.207 272.842 427.143 248.678 427.276 224.515 C 427.293 221.577 426.245 220.093 423.806 218.72 C 410.028 210.967 396.335 203.062 382.621 195.197 C 381.2 194.382 379.826 193.485 378.435 192.63 C 382.329 186.453 387.518 185.019 393.753 188.543 C 405.633 195.257 417.47 202.051 429.218 208.992 C 431.84 210.541 433.782 210.577 436.438 208.994 C 449.448 201.244 462.592 193.719 475.695 186.126 C 477.255 185.221 478.854 184.382 480.455 183.502 C 483.448 190.148 481.939 195.213 475.703 198.943 C 464.849 205.436 453.967 211.888 442.939 218.078 C 439.648 219.925 438.278 221.911 438.314 225.842 C 438.525 249.004 438.418 272.169 438.418 295.334 C 438.418 296.971 438.418 298.608 438.418 301.114 C 440.414 300.145 441.717 299.611 442.924 298.913 C 463.526 287 484.087 275.016 504.743 263.198 C 507.395 261.681 508.357 260.023 508.352 256.955 C 508.255 200.128 508.264 143.301 508.33 86.474 C 508.334 83.687 507.623 81.991 505.052 80.517 C 482.095 67.357 459.202 54.085 436.376 40.7 C 433.679 39.119 431.725 39.33 429.151 40.835 C 406.455 54.11 383.721 67.324 360.893 80.37 C 357.964 82.044 357.198 83.946 357.227 87.109 C 357.369 103.106 357.341 119.105 357.252 135.103 C 357.208 143.112 353.778 149.309 346.134 154.177 C 346.134 152.099 346.134 150.847 346.134 149.595 C 346.135 126.431 346.199 103.266 346.06 80.103 C 346.041 77.032 347.001 75.383 349.649 73.871 C 376.095 58.769 402.495 43.584 428.812 28.259 C 431.827 26.503 433.993 26.562 436.976 28.298 C 463.154 43.531 489.403 58.645 515.72 73.637 C 518.769 75.373 519.66 77.393 519.645 80.758 C 519.518 108.087 519.628 135.418 519.505 162.748 C 519.489 166.143 520.463 168.089 523.525 169.831 C 547.825 183.656 571.983 197.731 596.258 211.602 C 599.152 213.256 600.424 215.009 600.406 218.536 C 600.243 249.031 600.264 279.528 600.38 310.025 C 600.393 313.379 599.518 315.342 596.436 317.096 C 570.116 332.085 543.897 347.25 517.708 362.468 C 515.157 363.95 513.287 364.222 510.539 362.628 C 457.281 331.724 403.966 300.917 350.588 270.221 C 347.295 268.328 346.013 266.373 346.045 262.471 C 346.256 237.309 346.155 212.144 346.157 186.98 C 346.157 185.199 346.157 183.418 346.157 181.008 C 344.419 181.791 343.227 182.213 342.148 182.833 C 321.366 194.765 300.621 206.761 279.797 218.62 C 277.192 220.103 276.125 221.717 276.141 224.834 C 276.283 251.164 276.246 277.494 276.185 303.825 C 276.179 306.486 276.565 308.313 279.276 309.827 C 293.803 317.942 308.175 326.332 322.909 334.827 M 535.362 339.25 C 552.075 329.606 568.755 319.903 585.533 310.374 C 588.29 308.808 589.506 307.164 589.485 303.809 C 589.323 277.492 589.342 251.173 589.466 224.856 C 589.481 221.78 588.484 220.101 585.837 218.594 C 565.309 206.908 544.869 195.068 524.39 183.295 C 523.075 182.539 521.667 181.944 519.551 180.906 C 519.551 183.901 519.551 185.873 519.551 187.846 C 519.554 212.832 519.501 237.818 519.627 262.802 C 519.643 266.157 518.862 268.246 515.674 269.893 C 509.326 273.173 503.246 276.97 497.059 280.56 C 479.67 290.649 462.283 300.742 444.427 311.105 C 446.197 312.265 447.511 313.221 448.911 314.029 C 469.225 325.756 489.599 337.38 509.824 349.259 C 513.016 351.134 515.307 351.051 518.321 349.122 C 523.64 345.717 529.23 342.738 535.362 339.25 Z" style="stroke-width: 1;"/>
  </g>
</svg>